<?xml version="1.0" encoding="utf-8"?>
<!-- Generator: Adobe Illustrator 24.0.3, SVG Export Plug-In . SVG Version: 6.00 Build 0)  -->
<svg version="1.1" id="Calque_1" xmlns="http://www.w3.org/2000/svg" xmlns:xlink="http://www.w3.org/1999/xlink" x="0px" y="0px"
	 viewBox="0 0 264.1 193.2" style="enable-background:new 0 0 264.1 193.2;" xml:space="preserve">
<style type="text/css">
	.st0{opacity:0.43;}
	.st1{fill:#20A276;}
	.st2{opacity:0.75;}
</style>
<title>logo</title>
<g class="st0">
	<path class="st1" d="M148.3,119.8c13.6,14.5,25.1,31.4,41.7,43.5l-9.9,7.2c-9.2-7.5-16.6-16.3-23.3-26.1
		c-4.5-6.7-9.3-13.1-14.4-19.2c-5.2-6.2-10-7.2-16.1-2.2c-6.3,5.3-11.8,11.4-16.5,18.2c-7.2,10-14.8,19.4-24.5,26.4
		c-0.9,0.6-1.8,1.2-3,2.1c-2.2-2.2-4.4-4.4-7-7l41.7-43.8c-8.4,0-14.9,3-21.2,6.7c-15,8.9-30.8,14.8-47.8,16.2
		c-16.2,1.3-32-1.7-48-6.2c0.5-0.7,1-1.4,1.5-2C22,114.8,45.3,104.6,72,102.6c10.5-0.8,20.5,1.2,30.4,3.5c21.2,5,42.1,4.6,63.4,0.1
		c30.7-6.3,58.8,3.2,85.4,19.4c7.7,4.7,10.7,8.7,12.9,14.9c-2.6,0.2-5,0.4-7.5,0.6c-12.7,0.8-25.4,2.2-38,2.3
		c-12.1,0.1-23.6-3.7-34.4-9.8c-7.1-4.1-14.3-8-21.7-11.4c-4.2-2-8.9-2.8-13.4-4.2C148.8,118.7,148.5,119.2,148.3,119.8z"/>
	<path class="st1" d="M148.4,78.3c18.7-40.7,63.6-73.1,106-75.1c-1.2,3.3-1.9,6.6-3.6,9.1c-6,8.7-11.6,18-18.8,25.3
		c-20.3,20.6-44,34.4-71.5,39.9c-3,0.5-6,0.8-9,1C150.6,78.6,149.5,78.5,148.4,78.3z"/>
	<path class="st1" d="M117.2,77.9C73.4,74.5,21.4,31,15,0c3.6,0.6,7,0.8,10.3,1.7C55,9.3,80.5,25.1,101.6,49.1
		C108.7,57.2,114.4,66.3,117.2,77.9z"/>
</g>
<path d="M66.4,163.8h2.8v19.9h9.7v2.4H66.4V163.8z"/>
<path d="M79.8,192.9l0.5-2.2c0.4,0.1,0.8,0.2,1.3,0.2c1.9,0,3-1.5,3.7-3.5l0.4-1.2L79,169.6h2.8l3.4,9.1c0.5,1.4,1.1,3.1,1.6,4.6H87
	c0.5-1.5,0.9-3.2,1.4-4.6l2.9-9.1h2.7l-6.2,17.9c-1.2,3.3-2.9,5.8-6.2,5.8C81,193.3,80.4,193.1,79.8,192.9z"/>
<path d="M95.9,177.9c0-5.5,3.6-8.7,7.7-8.7s7.7,3.2,7.7,8.7s-3.6,8.6-7.7,8.6S95.9,183.4,95.9,177.9z M108.3,177.9
	c0-3.8-1.9-6.4-4.8-6.4s-4.8,2.6-4.8,6.4s1.9,6.3,4.8,6.3S108.4,181.7,108.3,177.9L108.3,177.9z"/>
<path d="M115.6,169.6h2.3l0.2,2.4h0.1c1.6-1.5,3.3-2.8,5.5-2.8c3.5,0,5,2.2,5,6.5v10.5H126V176c0-3.1-0.9-4.4-3.1-4.4
	c-1.7,0-2.9,0.9-4.5,2.5v12h-2.8L115.6,169.6z"/>
<path d="M134.2,169.6h2.3l0.2,2.4h0.1c1.6-1.5,3.3-2.8,5.5-2.8c3.5,0,5,2.2,5,6.5v10.5h-2.8V176c0-3.1-0.9-4.4-3.1-4.4
	c-1.7,0-2.9,0.9-4.5,2.5v12h-2.8L134.2,169.6z"/>
<path d="M151.8,181.8c0-3.6,3.1-5.4,10.1-6.2c0-2.1-0.7-4.2-3.4-4.2c-1.8,0.1-3.5,0.7-4.9,1.8l-1.1-1.9c1.9-1.3,4.2-2.1,6.5-2.2
	c4,0,5.7,2.7,5.7,6.8v10.1h-2.3l-0.2-2H162c-1.5,1.4-3.4,2.2-5.5,2.4c-2.5,0.2-4.6-1.6-4.8-4.1C151.7,182.2,151.7,182,151.8,181.8z
	 M161.9,182.1v-4.6c-5.5,0.7-7.4,2-7.4,4.1c0,1.9,1.3,2.6,2.9,2.6S160.3,183.5,161.9,182.1L161.9,182.1z"/>
<path d="M169.4,164.4c0-1.1,0.9-1.9,1.9-1.9c1.1,0,1.9,0.9,1.9,1.9c0,1.1-0.9,1.9-1.9,1.9C170.3,166.3,169.4,165.5,169.4,164.4z
	 M169.9,169.6h2.8v16.5h-2.8L169.9,169.6z"/>
<path d="M176.4,184.2l1.4-1.8c1.3,1.2,3.1,1.9,4.9,2c2.2,0,3.2-1.1,3.2-2.6c0-1.7-2-2.5-3.8-3.1c-2.3-0.8-4.9-2-4.9-4.8
	s2.1-4.7,5.7-4.7c1.9,0,3.7,0.7,5.1,1.9l-1.3,1.8c-1.1-0.9-2.4-1.4-3.8-1.5c-2.1,0-3,1.1-3,2.4c0,1.6,1.8,2.2,3.7,2.9
	c2.4,0.9,5,1.9,5,5c0,2.7-2.1,4.9-6,4.9C180.4,186.5,178.2,185.7,176.4,184.2z"/>
<path d="M191.3,177.9c0-5.4,3.6-8.7,7.4-8.7c4.2,0,6.6,3,6.6,7.8c0,0.5,0,1.1-0.1,1.6H194c0.2,3.5,2.3,5.8,5.5,5.8
	c1.5,0,2.9-0.5,4.1-1.3l1,1.8c-1.6,1.1-3.5,1.7-5.5,1.7C194.8,186.5,191.3,183.3,191.3,177.9z M202.9,176.5c0-3.3-1.5-5.1-4.1-5.1
	c-2.3,0-4.4,1.9-4.7,5.1H202.9z"/>
<path class="st2" d="M67.2,42.2H24V28.1h103.3v14.2H84v116.7H67.2V42.2z"/>
<path class="st2" d="M126.4,56.8h11.8l27.1,80.5h-11.1l-13.9-44.9c-2.8-9-5.5-17.8-8-27.1h-0.5c-2.6,9.3-5.2,18.2-8,27.1l-14.1,44.9
	H99.2L126.4,56.8z M113.6,104.6h37v8.4h-37V104.6z"/>
<path class="st2" d="M205.6,28.1h-17.3v116.7h-67.7v14.2h85L205.6,28.1z"/>
</svg>
