<svg id="Calque_1" data-name="Calque 1" xmlns="http://www.w3.org/2000/svg" viewBox="0 0 36.64 49.82"><defs><style>.cls-1{fill:#1d1d1b;}.cls-2{fill:none;stroke:#1d1d1b;stroke-miterlimit:10;}</style></defs><title>amc</title><path class="cls-1" d="M25.58,20.59c1.64,1.74,3,3.77,5,5.22l-1.19.87a14.91,14.91,0,0,1-2.8-3.13,26.62,26.62,0,0,0-1.72-2.31c-.63-.74-1.2-.86-1.93-.26a10.79,10.79,0,0,0-2,2.18A13.71,13.71,0,0,1,18,26.33a4,4,0,0,0-.36.25l-.84-.84,5-5.25a4.84,4.84,0,0,0-2.54.8,13.21,13.21,0,0,1-5.74,1.94,16.26,16.26,0,0,1-5.76-.74L8,22.25a13.66,13.66,0,0,1,8.46-3.72,12.37,12.37,0,0,1,3.65.42,17.1,17.1,0,0,0,7.6,0c3.69-.75,7.06.39,10.25,2.33a3.13,3.13,0,0,1,1.55,1.79l-.9.07c-1.53.1-3,.26-4.56.28a8.31,8.31,0,0,1-4.13-1.18c-.85-.49-1.71-1-2.6-1.37a12.52,12.52,0,0,0-1.61-.5Z" transform="translate(-5.31 0.01)"/><path class="cls-1" d="M23.64,19.25c2.24-4.88,7.62-8.77,12.71-9a5,5,0,0,1-.43,1.09,21.6,21.6,0,0,1-2.26,3,16.39,16.39,0,0,1-8.57,4.78,9.91,9.91,0,0,1-1.08.12A1.18,1.18,0,0,1,23.64,19.25Z" transform="translate(-5.31 0.01)"/><path class="cls-1" d="M23.64,19.28c-5.26-.41-11.5-5.63-12.27-9.35.44.08.84.1,1.24.21a17.92,17.92,0,0,1,9.15,5.68A8,8,0,0,1,23.64,19.28Z" transform="translate(-5.31 0.01)"/><circle class="cls-2" cx="18.32" cy="18.32" r="17.82"/><rect class="cls-2" x="28.18" y="39.74" width="14.92" height="4.65" rx="1.5" transform="translate(53.16 -8.1) rotate(64.74)"/></svg>