<svg id="Calque_1" data-name="Calque 1" xmlns="http://www.w3.org/2000/svg" viewBox="0 0 49.43 41.06"><defs><style>.cls-1{fill:#1d1d1b;}.cls-2{fill:#fff;}</style></defs><title>picto-menu-2</title><path class="cls-1" d="M9.53,27.34A6.67,6.67,0,0,0,8.87,26a4.8,4.8,0,0,0-2.69-1.94,3.77,3.77,0,0,0-1.34-.17,4.82,4.82,0,0,0-2,.44,5.25,5.25,0,0,0-1.65,1.18A5.64,5.64,0,0,0,.29,27a2.7,2.7,0,0,0-.19.63c0,.21,0,.42-.07.64a5,5,0,0,0,.63,3,12.48,12.48,0,0,0,1.1,1.52c.5.62,1,1.21,1.55,1.8s.93,1,1.39,1.49c.12.13.24.21.36,0a1.56,1.56,0,0,1,.2-.27C6,35,6.66,34.19,7.34,33.35S8.47,32,9,31.21a4.9,4.9,0,0,0,.83-2.5A10.05,10.05,0,0,0,9.53,27.34Zm-1.41.14a.73.73,0,0,1-.11.27,5.58,5.58,0,0,1-.57.78,4.24,4.24,0,0,1-2.18,1.21,1.24,1.24,0,0,1-.27,0h-.1A4,4,0,0,1,8.12,27.48Zm-6,0A4.47,4.47,0,0,1,4.42,28.9a1.89,1.89,0,0,1,.47.87A4,4,0,0,1,1.78,27.4,2.87,2.87,0,0,1,2.09,27.45Zm6.6,3.31c-.39,0-.77.06-1.16.07a2.19,2.19,0,0,1-1-.3,5.19,5.19,0,0,0-.66-.35,2.8,2.8,0,0,0-.41-.13s0,0,0,.06a9.3,9.3,0,0,0,1.27,1.32l-.3.22a3.56,3.56,0,0,1-.71-.79,6.46,6.46,0,0,0-.44-.59c-.16-.19-.3-.22-.49-.07a3,3,0,0,0-.5.56,3.36,3.36,0,0,1-.75.8l-.09.07-.21-.22,1.27-1.33a1.25,1.25,0,0,0-.65.2,3.39,3.39,0,0,1-1.46.5,4.08,4.08,0,0,1-1.46-.19l.05-.06a3.41,3.41,0,0,1,2.14-1,3.2,3.2,0,0,1,.93.11,4.34,4.34,0,0,0,1.93,0,3.59,3.59,0,0,1,2.61.59.84.84,0,0,1,.39.46Z" transform="translate(0 -3.27)"/><path class="cls-1" d="M41.17,31.58a9.68,9.68,0,0,0-.94-1.91,6.85,6.85,0,0,0-3.84-2.79,5.72,5.72,0,0,0-1.93-.24,7,7,0,0,0-2.8.63A7.66,7.66,0,0,0,29.29,29,8,8,0,0,0,28,31.15a4.06,4.06,0,0,0-.27.9c-.06.3-.06.61-.1.92a7,7,0,0,0,.9,4.29,16.72,16.72,0,0,0,1.57,2.18c.72.89,1.47,1.74,2.23,2.59s1.32,1.41,2,2.12c.18.19.35.3.52,0a2.76,2.76,0,0,1,.28-.39c1-1.18,2-2.35,3-3.56.8-1,1.62-2,2.32-3.06a7,7,0,0,0,1.19-3.58A12.58,12.58,0,0,0,41.17,31.58Zm-2,.2a2.42,2.42,0,0,1-.16.39,8.38,8.38,0,0,1-.82,1.11A6,6,0,0,1,35.07,35l-.39,0a.34.34,0,0,1-.14,0A5.79,5.79,0,0,1,39.17,31.78Zm-8.64,0a6.46,6.46,0,0,1,3.33,2.07,2.87,2.87,0,0,1,.68,1.25c-1.91-.14-4.18-2-4.46-3.39A3,3,0,0,1,30.53,31.74ZM40,36.47c-.56,0-1.11.1-1.66.1a3,3,0,0,1-1.5-.42c-.31-.18-.63-.35-1-.5a5.62,5.62,0,0,0-.58-.19l0,.08a13.61,13.61,0,0,0,1.82,1.9l-.43.32a5.52,5.52,0,0,1-1-1.14,6.57,6.57,0,0,0-.63-.84c-.22-.27-.43-.32-.7-.1a4.24,4.24,0,0,0-.72.8,4.88,4.88,0,0,1-1.07,1.15l-.13.09-.3-.31,1.82-1.91a1.69,1.69,0,0,0-.93.3,4.89,4.89,0,0,1-2.09.7,5.79,5.79,0,0,1-2.09-.27.27.27,0,0,1,.07-.08,4.93,4.93,0,0,1,3.07-1.36,4.22,4.22,0,0,1,1.33.16A6.27,6.27,0,0,0,36,35a5,5,0,0,1,3.73.85,1.08,1.08,0,0,1,.56.65Z" transform="translate(0 -3.27)"/><path class="cls-1" d="M19.71,19.14a2.73,2.73,0,0,0-.27-.54,2,2,0,0,0-1.09-.8,1.72,1.72,0,0,0-.55-.06,1.87,1.87,0,0,0-.8.18,2,2,0,0,0-.67.48,2.49,2.49,0,0,0-.39.62,1.11,1.11,0,0,0-.07.26,2.06,2.06,0,0,0,0,.26,2,2,0,0,0,.26,1.22,4.37,4.37,0,0,0,.44.62c.21.25.42.5.64.74l.56.6c.05.06.1.09.15,0a.44.44,0,0,1,.08-.11c.28-.34.57-.67.85-1s.46-.57.66-.87a2,2,0,0,0,.34-1A5,5,0,0,0,19.71,19.14Zm-.57.06a1.17,1.17,0,0,1-.05.11,1.86,1.86,0,0,1-.23.32,1.75,1.75,0,0,1-.89.49h-.11s0,0,0,0A1.64,1.64,0,0,1,19.14,19.2Zm-2.46,0a1.85,1.85,0,0,1,.95.59.74.74,0,0,1,.19.36,1.67,1.67,0,0,1-1.27-1Zm2.69,1.35-.47,0a.74.74,0,0,1-.43-.12l-.27-.14L18,20.25v0a3.78,3.78,0,0,0,.52.54l-.12.09a1.26,1.26,0,0,1-.29-.32,2.5,2.5,0,0,0-.18-.24c-.07-.08-.13-.09-.2,0a1.15,1.15,0,0,0-.21.23,1.57,1.57,0,0,1-.3.33l0,0-.08-.09.51-.54a.57.57,0,0,0-.26.08,1.3,1.3,0,0,1-.59.2,1.76,1.76,0,0,1-.6-.07l0,0a1.38,1.38,0,0,1,.87-.38,1.17,1.17,0,0,1,.38,0,1.76,1.76,0,0,0,.79,0,1.44,1.44,0,0,1,1.06.24.32.32,0,0,1,.16.19Z" transform="translate(0 -3.27)"/><path class="cls-1" d="M49.28,23.77A3.86,3.86,0,0,0,48.9,23a2.73,2.73,0,0,0-1.53-1.11,2.2,2.2,0,0,0-.77-.09,2.72,2.72,0,0,0-1.11.25,3.16,3.16,0,0,0-.94.67,3.07,3.07,0,0,0-.54.88,2,2,0,0,0-.11.35c0,.12,0,.25,0,.37A2.83,2.83,0,0,0,44.22,26a7.7,7.7,0,0,0,.63.87c.28.35.58.69.89,1s.52.56.78.84c.08.08.14.12.21,0a.91.91,0,0,1,.11-.16c.4-.47.8-.94,1.19-1.42s.65-.79.93-1.22a2.92,2.92,0,0,0,.47-1.42A6.5,6.5,0,0,0,49.28,23.77Zm-.8.08a.59.59,0,0,1-.06.16,3.88,3.88,0,0,1-.33.44,2.42,2.42,0,0,1-1.24.7h-.21A2.3,2.3,0,0,1,48.48,23.85Zm-3.44,0a2.63,2.63,0,0,1,1.33.82,1.21,1.21,0,0,1,.27.5,2.28,2.28,0,0,1-1.78-1.35Zm3.76,1.88c-.22,0-.44,0-.66,0a1.09,1.09,0,0,1-.6-.17l-.37-.19a2.25,2.25,0,0,0-.24-.08s0,0,0,0a5.77,5.77,0,0,0,.72.76l-.17.13a2,2,0,0,1-.4-.46l-.25-.33c-.09-.11-.18-.13-.28,0a1.47,1.47,0,0,0-.29.32,2.35,2.35,0,0,1-.43.46l0,0-.12-.12.72-.76a.65.65,0,0,0-.36.12,2.1,2.1,0,0,1-.83.28,2.4,2.4,0,0,1-.84-.11l0,0a2,2,0,0,1,1.22-.53,1.54,1.54,0,0,1,.53.06,2.55,2.55,0,0,0,1.1,0,2,2,0,0,1,1.49.34.47.47,0,0,1,.22.25Z" transform="translate(0 -3.27)"/><path class="cls-2" d="M28.49,12.18h-.11c0-.82,0-1.63,0-2.44a1.26,1.26,0,0,0-1-1.18,13,13,0,0,0-3.06-.51A16,16,0,0,0,21,8.53,1.15,1.15,0,0,0,20,9.7c-.06,1.23-.14,2.47-.28,3.7a5.12,5.12,0,0,0,.54,2.65,27,27,0,0,1,1.27,2.81,29.73,29.73,0,0,1,.55,3.4c.23,1.47.47,2.94.7,4.41.08.49,0,1.21.23,1.41s1,.11,1.55.11c.8,0,1-.2,1.06-1,.06-.65.12-1.31.2-2,.22-1.9.37-3.81.71-5.69A14.73,14.73,0,0,1,27.64,16c.45-1,1.07-1.87.85-3A4.6,4.6,0,0,1,28.49,12.18ZM23.72,35.09v0h2.12c.58,0,.68-.18.56-.75s-.07-.93-.16-1.38a.89.89,0,0,0-.38-.5,1.27,1.27,0,0,0-.56,0,45.44,45.44,0,0,1-11.64-.9q-1.53-.37-3-.87c-.57-.18-.79-.1-1.06.46a6.31,6.31,0,0,1-.74,1.11c-.44.53-.42.74.23,1a2.54,2.54,0,0,0,.62.14l3,.55c1.46.28,2.92.68,4.39.82C19.28,35,21.5,35,23.72,35.09ZM42.39,32c.7-.66,1.36-1.23,2-1.86a1.47,1.47,0,0,0,.18-1.84,6.24,6.24,0,0,0-3.46-2.83,19.39,19.39,0,0,0-3.79-.91,46.9,46.9,0,0,0-4.87-.59c-1.46-.09-2.93,0-4.4,0-.17,0-.32.3-.49.45.15.11.3.31.45.32a21.62,21.62,0,0,0,2.41.13,34.53,34.53,0,0,1,7.23.88A6.14,6.14,0,0,1,40.09,27a2.45,2.45,0,0,1,.77,1C41.38,29.2,41.83,30.48,42.39,32ZM19,24.73l0,.17c.32,0,.65,0,1,0s.63-.11.94-.17a5.29,5.29,0,0,0-.52-1,.92.92,0,0,0-.63-.16c-.34,0-.68.07-1,.1-2,.22-3.94.42-5.9.67-.92.12-1.83.36-2.74.53-.3.05-.7,0-.7.44s.46,1.07.89,1c.85-.16,1.69-.41,2.54-.56C14.87,25.41,16.92,25.07,19,24.73Zm7.18-19.2A2.07,2.07,0,1,0,22,5.36a2.45,2.45,0,0,0,2.14,2.15A2,2,0,0,0,26.15,5.53Z" transform="translate(0 -3.27)"/><path d="M28.49,12.18a4.6,4.6,0,0,0,0,.83c.22,1.16-.4,2.05-.85,3a14.73,14.73,0,0,0-1.12,3.46c-.34,1.88-.49,3.79-.71,5.69-.08.66-.14,1.32-.2,2-.07.83-.26,1-1.06,1-.53,0-1.19.15-1.55-.11s-.15-.92-.23-1.41c-.23-1.47-.47-2.94-.7-4.41a29.73,29.73,0,0,0-.55-3.4,27,27,0,0,0-1.27-2.81,5.12,5.12,0,0,1-.54-2.65c.14-1.23.22-2.47.28-3.7a1.15,1.15,0,0,1,1-1.17,16,16,0,0,1,3.33-.48,13,13,0,0,1,3.06.51,1.26,1.26,0,0,1,1,1.18c0,.81,0,1.62,0,2.44Z" transform="translate(0 -3.27)"/><path d="M23.72,35.09c-2.22-.11-4.44-.14-6.65-.36-1.47-.14-2.93-.54-4.39-.82l-3-.55a2.54,2.54,0,0,1-.62-.14c-.65-.28-.67-.49-.23-1a6.31,6.31,0,0,0,.74-1.11c.27-.56.49-.64,1.06-.46q1.5.5,3,.87a45.44,45.44,0,0,0,11.64.9,1.27,1.27,0,0,1,.56,0,.89.89,0,0,1,.38.5c.09.45.07.93.16,1.38s0,.74-.56.75H23.72Z" transform="translate(0 -3.27)"/><path d="M42.39,32c-.56-1.47-1-2.75-1.53-4a2.45,2.45,0,0,0-.77-1,6.14,6.14,0,0,0-2.47-1.21,34.53,34.53,0,0,0-7.23-.88A21.62,21.62,0,0,1,28,24.74c-.15,0-.3-.21-.45-.32.17-.15.32-.44.49-.45,1.47,0,2.94-.14,4.4,0a46.9,46.9,0,0,1,4.87.59,19.39,19.39,0,0,1,3.79.91,6.24,6.24,0,0,1,3.46,2.83,1.47,1.47,0,0,1-.18,1.84C43.75,30.72,43.09,31.29,42.39,32Z" transform="translate(0 -3.27)"/><path d="M19,24.73c-2,.34-4.1.68-6.15,1-.85.15-1.69.4-2.54.56-.43.08-.89-.45-.89-1s.4-.39.7-.44c.91-.17,1.82-.41,2.74-.53,2-.25,3.93-.45,5.9-.67.34,0,.68-.1,1-.1a.92.92,0,0,1,.63.16,5.29,5.29,0,0,1,.52,1c-.31.06-.62.14-.94.17s-.64,0-1,0Z" transform="translate(0 -3.27)"/><path d="M26.15,5.53a2,2,0,0,1-2,2A2.45,2.45,0,0,1,22,5.36a2.07,2.07,0,1,1,4.13.17Z" transform="translate(0 -3.27)"/></svg>