<svg id="Calque_1" data-name="Calque 1" xmlns="http://www.w3.org/2000/svg" viewBox="0 0 49.02 66.29"><defs><style>.cls-1{fill:#1e1e1c;}</style></defs><title>itineraire</title><path class="cls-1" d="M24.1,41.3v-.13c-.9.26-1.83.48-2.69.8s-1,1.07-.44,1.84,1.07.55,1.7.39a9.63,9.63,0,0,1,1.83-.39A1.36,1.36,0,0,0,26,42.62a.92.92,0,0,0,0-.16c0-.92-.38-1.2-1.5-1.15Z" transform="translate(-0.49 -0.81)"/><path class="cls-1" d="M31.36,24.37c0,1.34-.74,1.88-1.68,1.72-.43-.08-.88-.08-1.35-.15a4.58,4.58,0,0,1-1.59-.34c-.36-.2-.85-.8-.77-1.07s.69-1.16,1.07-1.16a17.79,17.79,0,0,1,3.7.42C31,23.84,31.25,24.27,31.36,24.37Z" transform="translate(-0.49 -0.81)"/><path class="cls-1" d="M29.13,42.85c-.72-.22-1.35-.19-1.46-1.05a1.57,1.57,0,0,1,1.19-1.63c.87-.2,1.75-.38,2.62-.55A1.64,1.64,0,0,1,33,40.77.92.92,0,0,1,32.45,42l-.15,0C31.21,42.27,30.1,42.58,29.13,42.85Z" transform="translate(-0.49 -0.81)"/><path class="cls-1" d="M35,23.89a18.11,18.11,0,0,1,2.7.6c.4.14,1,.89.9,1.14-.19.49-.8,1.17-1.21,1.17a14.09,14.09,0,0,1-3.47-.59A1,1,0,0,1,33.11,25s0,0,0-.06A1.75,1.75,0,0,1,35,23.89Z" transform="translate(-0.49 -0.81)"/><path class="cls-1" d="M18.32,61.59a31.23,31.23,0,0,1,3.25,1,1.44,1.44,0,0,1,.67,1.21c-.09.43-.74,1.1-1,1a23.25,23.25,0,0,1-3.77-1.09.85.85,0,0,1-.58-1,.7.7,0,0,1,.11-.23A1.57,1.57,0,0,1,18.32,61.59Z" transform="translate(-0.49 -0.81)"/><path class="cls-1" d="M41.52,37.31c-.16-.89.75-.9,1.21-1.26s1.23-.72,1.81-1.14,1.18-.06,1.61.41a1,1,0,0,1,.16,1.38.75.75,0,0,1-.16.15,25.14,25.14,0,0,1-3.22,2C42.27,39.13,41.51,38.23,41.52,37.31Z" transform="translate(-0.49 -0.81)"/><path class="cls-1" d="M27.89,66.33c-1.08-.24-2.17-.48-3.25-.75a.91.91,0,0,1-.66-1.1.8.8,0,0,1,.11-.25,1.72,1.72,0,0,1,1.22-.92,8.57,8.57,0,0,1,3,.49,2,2,0,0,1,1,1.35C29.42,65.71,28.67,66.22,27.89,66.33Z" transform="translate(-0.49 -0.81)"/><path class="cls-1" d="M12,45.93c.08.81-.6,1.1-1.1,1.35-.74.39-1.58.59-2.35.92a1.14,1.14,0,0,1-1.44-.54,1,1,0,0,1,.14-1.42.71.71,0,0,1,.14-.1,28.47,28.47,0,0,1,3.39-1.51C11.3,44.47,12,45.23,12,45.93Z" transform="translate(-0.49 -0.81)"/><path class="cls-1" d="M7.76,59.68A6.66,6.66,0,0,1,6.55,59a27.23,27.23,0,0,1-2-2c-.51-.56-.17-1.13.26-1.52a1.16,1.16,0,0,1,1.59,0,19.87,19.87,0,0,1,2.27,2.13,1.34,1.34,0,0,1,.23,1.16C8.69,59.08,8.16,59.34,7.76,59.68Z" transform="translate(-0.49 -0.81)"/><path class="cls-1" d="M45.47,27.18a1.36,1.36,0,0,1-1.17,1.51,1.58,1.58,0,0,1-.68-.09c-.9-.35-1.8-.75-2.69-1.06a1,1,0,0,1-.66-1.18,1.23,1.23,0,0,1,.12-.26c.17-.4.81-1,1.12-.91a16.35,16.35,0,0,1,3.38,1.12C45.21,26.45,45.35,27,45.47,27.18Z" transform="translate(-0.49 -0.81)"/><path class="cls-1" d="M14.39,62.79a8,8,0,0,1-3.94-1.66,1.36,1.36,0,0,1-.16-1.24,1.57,1.57,0,0,1,1.28-.63,23.11,23.11,0,0,1,3.36,1.35.79.79,0,0,1,.46,1,.83.83,0,0,1-.09.16A6.18,6.18,0,0,1,14.39,62.79Z" transform="translate(-0.49 -0.81)"/><path class="cls-1" d="M46.49,32.18a15.91,15.91,0,0,0-.11-2.12,1.25,1.25,0,0,1,.87-1.34c.55-.25,1,.09,1.34.52a4.6,4.6,0,0,1,.07,4.21c-.3.32-.94.67-1.24.55a1.35,1.35,0,0,1-1-1.63A1.39,1.39,0,0,1,46.49,32.18Z" transform="translate(-0.49 -0.81)"/><path class="cls-1" d="M21.45,25.67H20.29a1.52,1.52,0,0,1-1.55-1.34c0-.57.78-1.14,1.55-1.14H23c.82,0,1.15.41,1.13,1.28s-.29,1.15-1.13,1.16Z" transform="translate(-0.49 -0.81)"/><path class="cls-1" d="M39.84,39.58c-.11.1-.33.49-.65.63-.92.4-1.89.71-2.84,1a1.36,1.36,0,0,1-1.53-.83A1,1,0,0,1,35.18,39l.22-.1c1-.4,2-.78,3.06-1.09C39.16,37.6,39.84,38.34,39.84,39.58Z" transform="translate(-0.49 -0.81)"/><path class="cls-1" d="M17.75,42.61c.65,0,.92.55,1,1.16a1,1,0,0,1-.61,1.31l-.12,0a20.63,20.63,0,0,1-3,.77,1.59,1.59,0,0,1-1.25-.66c-.19-.31,0-.93.17-1.35a1.27,1.27,0,0,1,.78-.56C15.71,43,16.68,42.84,17.75,42.61Z" transform="translate(-0.49 -0.81)"/><path class="cls-1" d="M2.67,51.84a24.64,24.64,0,0,1,.9-2.4,1.34,1.34,0,0,1,1.73-.79l.17.07a1.56,1.56,0,0,1,.36,1.93c-.21.54-.27,1.13-.48,1.67a2.76,2.76,0,0,1-.68,1.09,1,1,0,0,1-1.34,0A5.15,5.15,0,0,1,2.67,51.84Z" transform="translate(-0.49 -0.81)"/><path class="cls-1" d="M32.9,64.22c.46.16.9.35,1.34.48.88.24.89.92.68,1.56a1.35,1.35,0,0,1-1.54.8c-.37,0-.75-.16-1.13-.2-.74-.08-1.16-.42-1.12-1.22a1.42,1.42,0,0,1,1.35-1.34h.34Z" transform="translate(-0.49 -0.81)"/><path class="cls-1" d="M15,25.69h-.58c-1,0-1.25-.22-1.35-1.07s.33-1.35,1.35-1.35h1.23c1,0,1.34.48,1.24,1.5a.9.9,0,0,1-.83.95H15Z" transform="translate(-0.49 -0.81)"/><path class="cls-1" d="M19.38,7.66A14.07,14.07,0,0,0,18,5a9.48,9.48,0,0,0-5.28-3.82,7.71,7.71,0,0,0-2.7-.33,9.8,9.8,0,0,0-3.88.87A10.53,10.53,0,0,0,2.92,4a11.14,11.14,0,0,0-1.86,3A5.37,5.37,0,0,0,.69,8.32,12.65,12.65,0,0,0,.55,9.59,9.75,9.75,0,0,0,1.8,15.54a23.94,23.94,0,0,0,2.19,3c1,1.21,2,2.4,3.07,3.57s1.83,2,2.69,2.94c.24.27.49.43.73,0a2.29,2.29,0,0,1,.38-.54c1.34-1.65,2.77-3.26,4.12-4.93a50.15,50.15,0,0,0,3.23-4.26,9.9,9.9,0,0,0,1.7-5A19.22,19.22,0,0,0,19.38,7.66Zm-2.77.28a2.58,2.58,0,0,1-.23.54A11.09,11.09,0,0,1,15.19,10a8.36,8.36,0,0,1-4.32,2.41h-.73A8,8,0,0,1,16.61,7.94Zm-12,0a9.08,9.08,0,0,1,4.6,2.81,4.1,4.1,0,0,1,.95,1.75C7.5,12.28,4.4,9.65,4,7.78c.23,0,.41,0,.64.11Zm13.08,6.55c-.77,0-1.54.14-2.31.15A4.25,4.25,0,0,1,13.35,14,12.27,12.27,0,0,0,12,13.29a4.58,4.58,0,0,0-.82-.25v.1a18.44,18.44,0,0,0,2.52,2.63l-.59.43a7.07,7.07,0,0,1-1.42-1.57,12.53,12.53,0,0,0-.87-1.16c-.31-.38-.6-.43-1-.14a5.56,5.56,0,0,0-1,1.11A6.58,6.58,0,0,1,7.37,16l-.18.13-.43-.43L9.28,13a2.42,2.42,0,0,0-1.28.4,6.71,6.71,0,0,1-2.88,1,8.38,8.38,0,0,1-2.9-.36L2.3,14a6.85,6.85,0,0,1,4.27-1.86,6,6,0,0,1,1.89.2,8.5,8.5,0,0,0,3.82,0,7,7,0,0,1,5.18,1.17,1.55,1.55,0,0,1,.77.91Z" transform="translate(-0.49 -0.81)"/><path class="cls-1" d="M49,48.31a12.36,12.36,0,0,0-1.34-2.7,9.48,9.48,0,0,0-5.39-3.87,8.51,8.51,0,0,0-2.7-.32,9.79,9.79,0,0,0-3.88.86,10.94,10.94,0,0,0-3.27,2.36,11.1,11.1,0,0,0-1.74,3,7.42,7.42,0,0,0-.38,1.24c-.08.42-.08.85-.12,1.26a9.7,9.7,0,0,0,1.26,6,21.52,21.52,0,0,0,2.16,3c1,1.22,2,2.41,3.09,3.58s1.82,2,2.69,2.94c.26.27.49.42.73,0a5.3,5.3,0,0,1,.39-.54c1.35-1.64,2.78-3.26,4.13-4.93a53.27,53.27,0,0,0,3.22-4.25A9.64,9.64,0,0,0,49.51,51,18.59,18.59,0,0,0,49,48.31Zm-2.77.27a2.87,2.87,0,0,1-.22.55,10.28,10.28,0,0,1-1.2,1.52,8.14,8.14,0,0,1-4.25,2.4,5.35,5.35,0,0,1-.56.07h-.18A8.06,8.06,0,0,1,46.25,48.58Zm-12,0a8.89,8.89,0,0,1,4.6,2.86,3.92,3.92,0,0,1,1,1.74c-2.7-.2-5.78-2.83-6.17-4.7a4.4,4.4,0,0,1,.62,0Zm13.08,6.56c-.77,0-1.54.13-2.29.13A4,4,0,0,1,43,54.68,11.36,11.36,0,0,0,41.64,54a6.94,6.94,0,0,0-.81-.25v.1a19.52,19.52,0,0,0,2.52,2.7l-.59.44a8.14,8.14,0,0,1-1.42-1.57,10.87,10.87,0,0,0-.86-1.16c-.31-.38-.6-.45-1-.14a5.12,5.12,0,0,0-1,1.09A7.61,7.61,0,0,1,37,56.81l-.19.12-.41-.42L39,53.82a2.42,2.42,0,0,0-1.28.4,6.55,6.55,0,0,1-2.9,1,8.39,8.39,0,0,1-2.9-.37l.1-.12a6.93,6.93,0,0,1,4.26-1.88,6.69,6.69,0,0,1,1.83.22,8.88,8.88,0,0,0,3.84,0,7.11,7.11,0,0,1,5.16,1.17,1.54,1.54,0,0,1,.78.9Z" transform="translate(-0.49 -0.81)"/></svg>