<svg id="Calque_1" data-name="Calque 1" xmlns="http://www.w3.org/2000/svg" viewBox="0 0 49.83 41.28"><defs><style>.cls-1{fill:#1d1d1b;}</style></defs><title>picto-menu-1</title><path class="cls-1" d="M37.58,15.67A18,18,0,0,0,35.79,12,13,13,0,0,0,28.5,6.75a10.9,10.9,0,0,0-3.65-.46,13.3,13.3,0,0,0-5.31,1.2A14.43,14.43,0,0,0,15,10.71a14.93,14.93,0,0,0-2.55,4.15,7.77,7.77,0,0,0-.52,1.7c-.11.57-.11,1.16-.18,1.74a13.22,13.22,0,0,0,1.72,8.15,29.91,29.91,0,0,0,3,4.14c1.35,1.67,2.78,3.29,4.22,4.9,1.22,1.37,2.5,2.69,3.75,4,.35.36.67.57,1,0a4.62,4.62,0,0,1,.52-.73c1.89-2.25,3.81-4.47,5.65-6.76,1.53-1.89,3.08-3.79,4.42-5.82a13.39,13.39,0,0,0,2.25-6.78A25.22,25.22,0,0,0,37.58,15.67Zm-3.8.38a3.67,3.67,0,0,1-.3.75,15,15,0,0,1-1.56,2.09A11.34,11.34,0,0,1,26,22.2c-.25,0-.5.06-.74.08a.78.78,0,0,1-.26,0A11,11,0,0,1,33.78,16.05ZM17.39,16a12.35,12.35,0,0,1,6.32,3.93A5.46,5.46,0,0,1,25,22.28c-3.63-.28-7.93-3.88-8.46-6.45C16.84,15.88,17.12,15.9,17.39,16Zm17.92,9c-1.05.07-2.1.19-3.14.19a5.59,5.59,0,0,1-2.85-.81c-.59-.34-1.19-.66-1.8-.94A8.42,8.42,0,0,0,26.41,23a1.56,1.56,0,0,0-.06.15,25.47,25.47,0,0,0,3.45,3.6l-.82.6a9.93,9.93,0,0,1-1.93-2.16,17.32,17.32,0,0,0-1.19-1.59c-.43-.52-.83-.6-1.34-.18A7.48,7.48,0,0,0,23.16,25a9.45,9.45,0,0,1-2,2.19l-.25.17-.58-.58,3.45-3.62a3.3,3.3,0,0,0-1.75.55A9.07,9.07,0,0,1,18,25a11.25,11.25,0,0,1-4-.51l.12-.17A9.45,9.45,0,0,1,20,21.77a8.17,8.17,0,0,1,2.52.29,11.73,11.73,0,0,0,5.24,0,9.62,9.62,0,0,1,7.07,1.61,2.14,2.14,0,0,1,1.07,1.23Z" transform="translate(-0.08 -6.29)"/><path d="M32.79,35.43c.09-.77.76-1.51,1.37-1.47,1.05.07,2.1.19,3.14.36,1.37.22,2.73.49,4.08.78a17.47,17.47,0,0,1,2.15.58,14,14,0,0,1,5.37,2.79,3,3,0,0,1,1,1.75,3.37,3.37,0,0,1-.89,2,9.76,9.76,0,0,1-4.43,2.54c-1,.29-1.88.68-2.83,1a21.74,21.74,0,0,1-2.85.65c-1.89.27-3.78.51-5.68.67-2.73.23-5.47.51-8.2.51a81.66,81.66,0,0,1-8.42-.52c-2.45-.27-4.9-.7-7.32-1.18a22.6,22.6,0,0,1-6.44-2.19,6.8,6.8,0,0,1-2.35-2,2.28,2.28,0,0,1,.55-3.21,9.13,9.13,0,0,1,2.87-1.59,41,41,0,0,0,4.12-1.57,5.85,5.85,0,0,1,.84-.11c.41-.1.82-.23,1.23-.36s.7-.34,1-.29c1.28.21,2.41-.42,3.63-.54.94-.1,1.93-.3,2.59.67a2.58,2.58,0,0,1,.2.63,2.48,2.48,0,0,1-.59.17c-1.49.07-3,0-4.48.21s-2.76.73-4.16.94a5.62,5.62,0,0,0-2.78,1.26,1.69,1.69,0,0,0,.23,3c.44.25.79.67,1.23.9a9.92,9.92,0,0,0,1.89.75,30.18,30.18,0,0,0,3,.7c1.82.32,3.64.7,5.47.84,2.72.22,5.46.35,8.2.34,2.58,0,5.17-.14,7.74-.39a41.65,41.65,0,0,0,6.07-1,15.37,15.37,0,0,0,5.19-2.21,1.75,1.75,0,0,0-.09-2.81,11,11,0,0,0-4.81-1.69c-1.79-.25-3.58-.47-5.37-.69C33.81,35.47,33.33,35.46,32.79,35.43Z" transform="translate(-0.08 -6.29)"/></svg>